# xmcd
#
# Track frame offsets:
#	150
#	11698
#	25374
#	41804
#	58038
#	73844
#	88673
#	103202
#	121052
#	136939
#	152424
#	167406
#	182600
#	197298
#	214696
#	230969
#	246756
#	262485
#	277662
#	293984
#
# Disc length: 4155 seconds
#
# Revision: 1
# Processed by: cddbd v1.5.2PL0 Copyright (c) Steve Scherf et al.
# Submitted via: audiograbber 1.83.01
#
DISCID=22103914
DTITLE=Various Artist - Stax - Soulsville, USA [CD3]
DYEAR=2017
DGENRE=R&B
TTITLE0=Jean Knight - Mr. Big Stuff
TTITLE1=Johnnie Taylor - Jody's Got Your Girl and Gone
TTITLE2=Isaac Hayes - Never Can Say Goodbye
TTITLE3=The Dramatics - Whatcha See is Whatcha Get
TTITLE4=The Staple Singers - Respect Yourself
TTITLE5=Isaac Hayes - Theme from Shaft
TTITLE6=The Bar-Kays - Son of Shaft
TTITLE7=Little Milton - That's What Love Will Make You Do
TTITLE8=The Soul Children - Hearsay
TTITLE9=The Dramatics - In the Rain
TTITLE10=Isaac Hayes - Do Your Thing
TTITLE11=Frederick Knight - I've Been Lonely for So Long
TTITLE12=The Staple Singers - I'll Take You There
TTITLE13=Mel and Tim - Starting All Over Again
TTITLE14=The Temprees - Dedicated to the One I Love
TTITLE15=The Dramatics - Hey You! Get Off My Mountain
TTITLE16=Johnnie Taylor - Cheaper to Keep Her
TTITLE17=The Staple Singers - If You're Ready
TTITLE18=The Soul Children - I'll Be the Other Woman
TTITLE19=Shirley Brown - Woman to Woman
EXTD=
EXTT0=
EXTT1=
EXTT2=
EXTT3=
EXTT4=
EXTT5=
EXTT6=
EXTT7=
EXTT8=
EXTT9=
EXTT10=
EXTT11=
EXTT12=
EXTT13=
EXTT14=
EXTT15=
EXTT16=
EXTT17=
EXTT18=
EXTT19=
PLAYORDER=
